<svg xmlns="http://www.w3.org/2000/svg" viewBox="0 0 64 64" fill="none">
  <!-- Background -->
  <rect width="64" height="64" rx="14" fill="#C8102E"/>

  <!-- Decorative top bar (gold accent) -->
  <rect x="0" y="0" width="64" height="6" rx="4" fill="#F7B731"/>
  <rect x="0" y="0" width="64" height="3" rx="0" fill="#F7B731"/>

  <!-- "CB" monogram in white -->
  <!-- C -->
  <path
    d="M10 22 C10 16 14 13 20 13 C24 13 27 14.5 28.5 17 L24.5 19.5 C23.5 18 22 17 20 17 C16.5 17 14.5 19 14.5 22 L14.5 26 C14.5 29 16.5 31 20 31 C22 31 23.5 30 24.5 28.5 L28.5 31 C27 33.5 24 35 20 35 C14 35 10 32 10 26 Z"
    fill="white"
  />

  <!-- B -->
  <path
    d="M32 13 L32 35 L42 35 C46.5 35 49 32.5 49 29.5 C49 27.5 47.8 25.8 46 25 C47.5 24.2 48.5 22.8 48.5 21 C48.5 17.8 46 13 41.5 13 Z
       M36.5 16.5 L41 16.5 C43 16.5 44 17.8 44 19.5 C44 21.2 43 22.5 41 22.5 L36.5 22.5 Z
       M36.5 25.5 L42 25.5 C44.2 25.5 45.2 27 45.2 29 C45.2 31 44.2 31.5 42 31.5 L36.5 31.5 Z"
    fill="white"
    fill-rule="evenodd"
  />

  <!-- Bottom label bar -->
  <rect x="4" y="46" width="56" height="13" rx="5" fill="rgba(0,0,0,0.20)"/>
  <text
    x="32" y="56"
    font-family="'Helvetica Neue', Arial, sans-serif"
    font-size="7.5"
    font-weight="700"
    fill="white"
    text-anchor="middle"
    letter-spacing="0.8"
  >MAINTENANCE</text>
</svg>
